<svg xmlns="http://www.w3.org/2000/svg" width="340" height="200" viewBox="0 0 340 200"><style>
@keyframes gpsc-fade{from{opacity:0}to{opacity:1}}
@keyframes gpsc-rise{from{opacity:0;transform:translateY(16px)}to{opacity:1;transform:translateY(0)}}
@keyframes gpsc-grow{from{transform:scaleY(0)}to{transform:scaleY(1)}}
@keyframes gpsc-pop{from{opacity:0;transform:scale(.55)}to{opacity:1;transform:scale(1)}}
@keyframes gpsc-wipe{from{transform:translateX(calc(-1 * var(--gpsc-w,420px)))}to{transform:translateX(0)}}
@keyframes gpsc-tint{from{filter:sepia(.7) saturate(4) hue-rotate(-70deg)}to{filter:sepia(0) saturate(1) hue-rotate(0)}}
@keyframes gpsc-rgb{0%{filter:hue-rotate(0deg) saturate(1)}50%{filter:hue-rotate(180deg) saturate(1.7)}100%{filter:hue-rotate(360deg) saturate(1)}}.gpsc-item{animation:gpsc-fade 0.96s ease both calc(var(--gpsc-i,0) * 0.144s)}.arc{animation:gpsc-pop 0.96s ease both 1.08s;transform-box:fill-box;transform-origin:center}rect.bar{animation:gpsc-grow 1.2s cubic-bezier(.2,.7,.3,1) both 1.08s;transform-box:fill-box;transform-origin:center bottom}.gpsc-reveal{animation:gpsc-wipe 1.44s linear both 0.96s}@media (prefers-reduced-motion:reduce){.gpsc-root,.gpsc-root *,.gpsc-item,.gpsc-chart,rect.bar,.arc,.gpsc-reveal{animation:none!important}}</style><style>* {
          font-family: 'Segoe UI', Ubuntu, "Helvetica Neue", Sans-Serif
        }</style><g class="gpsc-root"><rect x="1" y="1" rx="14" ry="14" height="99%" width="99.41176470588235%" stroke="#435666" stroke-width="1" fill="#263746" stroke-opacity="1"></rect><text x="30" y="40" class="gpsc-item" style="--gpsc-i: 0; font-size: 22px; fill: #69D2A5;">Top Languages by Commit</text><g transform="translate(0,40)"><g transform="translate(40,0)"><rect y="18" width="14" height="14" class="gpsc-item" style="--gpsc-i: 0; stroke-width: 1px;" fill="#FFD43B" stroke="#263746"></rect><rect y="43.2" width="14" height="14" class="gpsc-item" style="--gpsc-i: 1; stroke-width: 1px;" fill="#00C2FF" stroke="#263746"></rect><rect y="68.4" width="14" height="14" class="gpsc-item" style="--gpsc-i: 2; stroke-width: 1px;" fill="#A855F7" stroke="#263746"></rect><rect y="93.60000000000002" width="14" height="14" class="gpsc-item" style="--gpsc-i: 3; stroke-width: 1px;" fill="#3B82F6" stroke="#263746"></rect><rect y="118.80000000000001" width="14" height="14" class="gpsc-item" style="--gpsc-i: 4; stroke-width: 1px;" fill="#FF6B6B" stroke="#263746"></rect><text x="16.8" y="30" class="gpsc-item" style="--gpsc-i: 0; fill: #F3F6F8; font-size: 14px;">Python</text><text x="16.8" y="55.2" class="gpsc-item" style="--gpsc-i: 1; fill: #F3F6F8; font-size: 14px;">HTML</text><text x="16.8" y="80.4" class="gpsc-item" style="--gpsc-i: 2; fill: #F3F6F8; font-size: 14px;">C++</text><text x="16.8" y="105.60000000000002" class="gpsc-item" style="--gpsc-i: 3; fill: #F3F6F8; font-size: 14px;">Go</text><text x="16.8" y="130.8" class="gpsc-item" style="--gpsc-i: 4; fill: #F3F6F8; font-size: 14px;">C#</text></g><g transform="translate( 230, 80 )"><g class="arc" style="--gpsc-i: 0;"><path d="M3.67394039744206e-15,-60A60,60,0,1,1,-11.154696429774887,58.95398839399729L-6.506906250702018,34.38982656316509A35,35,0,1,0,2.1431318985078682e-15,-35Z" style="fill: #FFD43B; stroke-width: 2px;" stroke="#263746"></path></g><g class="arc" style="--gpsc-i: 1;"><path d="M-11.154696429774887,58.95398839399729A60,60,0,0,1,-54.37846722219899,-25.35709570444198L-31.720772546282745,-14.791639160924488A35,35,0,0,0,-6.506906250702018,34.38982656316509Z" style="fill: #00C2FF; stroke-width: 2px;" stroke="#263746"></path></g><g class="arc" style="--gpsc-i: 2;"><path d="M-54.37846722219899,-25.35709570444198A60,60,0,0,1,-31.286112202769868,-51.19745289792935L-18.250232118282423,-29.865180857125456A35,35,0,0,0,-31.720772546282745,-14.791639160924488Z" style="fill: #A855F7; stroke-width: 2px;" stroke="#263746"></path></g><g class="arc" style="--gpsc-i: 3;"><path d="M-31.286112202769868,-51.19745289792935A60,60,0,0,1,-5.229344564859495,-59.771681885504734L-3.050450996168039,-34.8668144332111A35,35,0,0,0,-18.250232118282423,-29.865180857125456Z" style="fill: #3B82F6; stroke-width: 2px;" stroke="#263746"></path></g><g class="arc" style="--gpsc-i: 4;"><path d="M-5.229344564859495,-59.771681885504734A60,60,0,0,1,-1.1021821192326178e-14,-60L-6.429395695523604e-15,-35A35,35,0,0,0,-3.050450996168039,-34.8668144332111Z" style="fill: #FF6B6B; stroke-width: 2px;" stroke="#263746"></path></g></g></g></g></svg>