<svg xmlns="http://www.w3.org/2000/svg" width="340" height="200" viewBox="0 0 340 200"><style>
@keyframes gpsc-fade{from{opacity:0}to{opacity:1}}
@keyframes gpsc-rise{from{opacity:0;transform:translateY(16px)}to{opacity:1;transform:translateY(0)}}
@keyframes gpsc-grow{from{transform:scaleY(0)}to{transform:scaleY(1)}}
@keyframes gpsc-pop{from{opacity:0;transform:scale(.55)}to{opacity:1;transform:scale(1)}}
@keyframes gpsc-wipe{from{transform:translateX(calc(-1 * var(--gpsc-w,420px)))}to{transform:translateX(0)}}
@keyframes gpsc-tint{from{filter:sepia(.7) saturate(4) hue-rotate(-70deg)}to{filter:sepia(0) saturate(1) hue-rotate(0)}}
@keyframes gpsc-rgb{0%{filter:hue-rotate(0deg) saturate(1)}50%{filter:hue-rotate(180deg) saturate(1.7)}100%{filter:hue-rotate(360deg) saturate(1)}}.gpsc-item{animation:gpsc-fade 0.96s ease both calc(var(--gpsc-i,0) * 0.144s)}.arc{animation:gpsc-pop 0.96s ease both 1.08s;transform-box:fill-box;transform-origin:center}rect.bar{animation:gpsc-grow 1.2s cubic-bezier(.2,.7,.3,1) both 1.08s;transform-box:fill-box;transform-origin:center bottom}.gpsc-reveal{animation:gpsc-wipe 1.44s linear both 0.96s}@media (prefers-reduced-motion:reduce){.gpsc-root,.gpsc-root *,.gpsc-item,.gpsc-chart,rect.bar,.arc,.gpsc-reveal{animation:none!important}}</style><style>* {
          font-family: 'Segoe UI', Ubuntu, "Helvetica Neue", Sans-Serif
        }</style><g class="gpsc-root"><rect x="1" y="1" rx="14" ry="14" height="99%" width="99.41176470588235%" stroke="#435666" stroke-width="1" fill="#263746" stroke-opacity="1"></rect><text x="30" y="40" class="gpsc-item" style="--gpsc-i: 0; font-size: 22px; fill: #69D2A5;">Top Languages by Commit</text><g transform="translate(0,40)"><g transform="translate(40,0)"><rect y="18" width="14" height="14" class="gpsc-item" style="--gpsc-i: 0; stroke-width: 1px;" fill="#FFD43B" stroke="#263746"></rect><rect y="43.2" width="14" height="14" class="gpsc-item" style="--gpsc-i: 1; stroke-width: 1px;" fill="#00C2FF" stroke="#263746"></rect><rect y="68.4" width="14" height="14" class="gpsc-item" style="--gpsc-i: 2; stroke-width: 1px;" fill="#A855F7" stroke="#263746"></rect><rect y="93.60000000000002" width="14" height="14" class="gpsc-item" style="--gpsc-i: 3; stroke-width: 1px;" fill="#3B82F6" stroke="#263746"></rect><rect y="118.80000000000001" width="14" height="14" class="gpsc-item" style="--gpsc-i: 4; stroke-width: 1px;" fill="#FF6B6B" stroke="#263746"></rect><text x="16.8" y="30" class="gpsc-item" style="--gpsc-i: 0; fill: #F3F6F8; font-size: 14px;">Python</text><text x="16.8" y="55.2" class="gpsc-item" style="--gpsc-i: 1; fill: #F3F6F8; font-size: 14px;">HTML</text><text x="16.8" y="80.4" class="gpsc-item" style="--gpsc-i: 2; fill: #F3F6F8; font-size: 14px;">C++</text><text x="16.8" y="105.60000000000002" class="gpsc-item" style="--gpsc-i: 3; fill: #F3F6F8; font-size: 14px;">Go</text><text x="16.8" y="130.8" class="gpsc-item" style="--gpsc-i: 4; fill: #F3F6F8; font-size: 14px;">C#</text></g><g transform="translate( 230, 80 )"><g class="arc" style="--gpsc-i: 0;"><path d="M3.67394039744206e-15,-60A60,60,0,1,1,-49.49984847589815,33.9081848653555L-28.874911610940586,19.77977450479071A35,35,0,1,0,2.1431318985078682e-15,-35Z" style="fill: #FFD43B; stroke-width: 2px;" stroke="#263746"></path></g><g class="arc" style="--gpsc-i: 1;"><path d="M-49.49984847589815,33.9081848653555A60,60,0,0,1,-59.14116994149083,-10.115434639781991L-34.49901579920298,-5.900670206539496A35,35,0,0,0,-28.874911610940586,19.77977450479071Z" style="fill: #00C2FF; stroke-width: 2px;" stroke="#263746"></path></g><g class="arc" style="--gpsc-i: 2;"><path d="M-59.14116994149083,-10.115434639781991A60,60,0,0,1,-37.61542835364635,-46.74483447154026L-21.942333206293704,-27.267820108398485A35,35,0,0,0,-34.49901579920298,-5.900670206539496Z" style="fill: #A855F7; stroke-width: 2px;" stroke="#263746"></path></g><g class="arc" style="--gpsc-i: 3;"><path d="M-37.61542835364635,-46.74483447154026A60,60,0,0,1,-6.4554649741686525,-59.651713906368876L-3.7656879015983806,-34.79683311204851A35,35,0,0,0,-21.942333206293704,-27.267820108398485Z" style="fill: #3B82F6; stroke-width: 2px;" stroke="#263746"></path></g><g class="arc" style="--gpsc-i: 4;"><path d="M-6.4554649741686525,-59.651713906368876A60,60,0,0,1,4.226888398968133e-14,-60L2.4656848993980778e-14,-35A35,35,0,0,0,-3.7656879015983806,-34.79683311204851Z" style="fill: #FF6B6B; stroke-width: 2px;" stroke="#263746"></path></g></g></g></g></svg>